<svg width="49" height="49" viewBox="0 0 49 49" fill="none" xmlns="http://www.w3.org/2000/svg">
<g clip-path="url(#clip0_76:94)">
<path d="M48.2743 0.874268H0.261353V48.8087H48.2743V0.874268Z" fill="#323238"/>
<path d="M36.7964 19.6593C36.8411 18.6324 36.4902 17.629 35.8209 16.8696C35.1517 16.11 34.2187 15.6563 33.2267 15.6081C30.5547 15.4785 27.8296 15.4255 25.0465 15.4255H24.1786C21.4008 15.4255 18.6706 15.4757 15.9984 15.6081C15.0062 15.6596 14.0741 16.1159 13.4059 16.877C12.7378 17.638 12.388 18.642 12.4331 19.6694C12.3132 21.4504 12.2593 23.2241 12.2646 25.0023C12.2699 26.7806 12.3132 28.5571 12.4287 30.3398C12.3817 31.3687 12.7303 32.3751 13.3983 33.1384C14.0664 33.9018 14.9994 34.3602 15.9931 34.4131C18.8002 34.5482 21.6804 34.6075 24.6082 34.6029C27.5407 34.6127 30.4123 34.5494 33.2232 34.4131C34.2169 34.361 35.1504 33.9037 35.8193 33.141C36.4881 32.3784 36.8379 31.3724 36.792 30.3435C36.9076 28.5607 36.9605 26.7833 36.9561 25.0014C36.9655 23.2208 36.9123 21.44 36.7964 19.6593ZM22.2456 29.8998V20.0894L29.2397 24.9924L22.2456 29.8998Z" fill="white"/>
</g>
<defs>
<clipPath id="clip0_76:94">
<rect width="48.0129" height="47.9345" fill="white" transform="translate(0.261353 0.874268)"/>
</clipPath>
</defs>
</svg>
